<svg width="52" height="52" viewBox="0 0 52 52" fill="none" xmlns="http://www.w3.org/2000/svg">
<path d="M21.6667 41.1667C21.1604 41.1677 20.6698 40.9913 20.28 40.6683C20.0606 40.4864 19.8793 40.2631 
19.7463 40.011C19.6134 39.7589 19.5315 39.4831 19.5053 39.1993C19.4792 38.9155 19.5092 38.6293 19.5938 
38.3572C19.6784 38.085 19.8159 37.8323 19.9983 37.6133L29.705 26L20.345 14.365C20.165 14.1434 20.0306 
13.8884 19.9495 13.6146C19.8684 13.3409 19.8422 13.0538 19.8724 12.7699C19.9026 12.486 19.9886 12.2109 
20.1255 11.9604C20.2624 11.7098 20.4474 11.4888 20.67 11.31C20.8942 11.1128 21.1567 10.964 21.4411 
10.873C21.7255 10.782 22.0256 10.7508 22.3227 10.7813C22.6197 10.8118 22.9072 10.9034 23.1672 11.0503C23.4272 
11.1972 23.6539 11.3963 23.8333 11.635L34.2983 24.635C34.617 25.0227 34.7912 25.509 34.7912 26.0108C34.7912 
26.5127 34.617 26.999 34.2983 27.3867L23.465 40.3867C23.2476 40.6489 22.9715 40.8561 22.6591 40.9917C22.3466 
41.1272 22.0066 41.1871 21.6667 41.1667Z" fill="#000"/>
</svg>